<svg width="128" height="128" viewBox="0 0 128 128" fill="none" xmlns="http://www.w3.org/2000/svg">
<g clip-path="url(#clip0_1586_15)">
<rect width="128" height="128" rx="24" fill="#4C5567"/>
<g clip-path="url(#clip1_1586_15)">
<rect opacity="0.25" x="6" y="6" width="36" height="36" rx="6" fill="black"/>
<path d="M24.2674 33.2557C22.9549 33.2557 21.8214 32.983 20.8668 32.4375C19.918 31.8864 19.1879 31.108 18.6765 30.1023C18.1651 29.0909 17.9094 27.9006 17.9094 26.5312C17.9094 25.1847 18.1651 24.0028 18.6765 22.9858C19.1935 21.9631 19.9151 21.1676 20.8413 20.5994C21.7674 20.0256 22.8555 19.7386 24.1055 19.7386C24.9123 19.7386 25.6737 19.8693 26.3896 20.1307C27.1112 20.3864 27.7475 20.7841 28.2987 21.3239C28.8555 21.8636 29.293 22.5511 29.6112 23.3864C29.9293 24.2159 30.0884 25.2045 30.0884 26.3523V27.2983H19.3583V25.2188H27.131C27.1254 24.6278 26.9975 24.1023 26.7475 23.642C26.4975 23.1761 26.1481 22.8097 25.6992 22.5426C25.256 22.2756 24.739 22.142 24.1481 22.142C23.5174 22.142 22.9634 22.2955 22.4862 22.6023C22.0089 22.9034 21.6367 23.3011 21.3697 23.7955C21.1083 24.2841 20.9748 24.821 20.9691 25.4062V27.2216C20.9691 27.983 21.1083 28.6364 21.3867 29.1818C21.6651 29.7216 22.0543 30.1364 22.5543 30.4261C23.0543 30.7102 23.6396 30.8523 24.31 30.8523C24.7589 30.8523 25.1651 30.7898 25.5288 30.6648C25.8924 30.5341 26.2077 30.3438 26.4748 30.0938C26.7418 29.8438 26.9435 29.5341 27.0799 29.1648L29.9606 29.4886C29.7788 30.25 29.4322 30.9148 28.9208 31.483C28.4151 32.0455 27.7674 32.483 26.9776 32.7955C26.1879 33.1023 25.2844 33.2557 24.2674 33.2557Z" fill="#EBEFF7"/>
<rect opacity="0.25" x="46" y="6" width="36" height="36" rx="6" fill="black"/>
<path d="M63.9947 33.2557C62.7163 33.2557 61.6083 32.9744 60.6708 32.4119C59.7333 31.8494 59.006 31.0625 58.489 30.0511C57.9776 29.0398 57.7219 27.858 57.7219 26.5057C57.7219 25.1534 57.9776 23.9687 58.489 22.9517C59.006 21.9347 59.7333 21.1449 60.6708 20.5824C61.6083 20.0199 62.7163 19.7386 63.9947 19.7386C65.2731 19.7386 66.381 20.0199 67.3185 20.5824C68.256 21.1449 68.9805 21.9347 69.4918 22.9517C70.0089 23.9687 70.2674 25.1534 70.2674 26.5057C70.2674 27.858 70.0089 29.0398 69.4918 30.0511C68.9805 31.0625 68.256 31.8494 67.3185 32.4119C66.381 32.9744 65.2731 33.2557 63.9947 33.2557ZM64.0117 30.7841C64.7049 30.7841 65.2844 30.5937 65.7504 30.2131C66.2163 29.8267 66.5629 29.3097 66.7901 28.6619C67.0231 28.0142 67.1396 27.2926 67.1396 26.4972C67.1396 25.696 67.0231 24.9716 66.7901 24.3239C66.5629 23.6705 66.2163 23.1506 65.7504 22.7642C65.2844 22.3778 64.7049 22.1847 64.0117 22.1847C63.3015 22.1847 62.7106 22.3778 62.239 22.7642C61.7731 23.1506 61.4237 23.6705 61.1907 24.3239C60.9634 24.9716 60.8498 25.696 60.8498 26.4972C60.8498 27.2926 60.9634 28.0142 61.1907 28.6619C61.4237 29.3097 61.7731 29.8267 62.239 30.2131C62.7106 30.5937 63.3015 30.7841 64.0117 30.7841Z" fill="#EBEFF7"/>
<rect opacity="0.25" x="86" y="6" width="36" height="36" rx="6" fill="black"/>
<path d="M101.358 19.9091L104 24.7415L106.685 19.9091H109.949L106.003 26.4545L110.017 33H106.77L104 28.2869L101.256 33H97.983L101.972 26.4545L98.0852 19.9091H101.358Z" fill="#EBEFF7"/>
<rect opacity="0.25" x="6" y="46" width="36" height="36" rx="6" fill="black"/>
<path d="M24.3697 73.2557C23.0629 73.2557 21.9407 72.9688 21.0032 72.3949C20.0714 71.821 19.3526 71.0284 18.8469 70.017C18.3469 69 18.0969 67.8295 18.0969 66.5057C18.0969 65.1761 18.3526 64.0028 18.864 62.9858C19.3754 61.9631 20.0969 61.1676 21.0288 60.5994C21.9663 60.0256 23.0742 59.7386 24.3526 59.7386C25.4151 59.7386 26.3555 59.9347 27.1737 60.3267C27.9975 60.7131 28.6538 61.2614 29.1424 61.9716C29.631 62.6761 29.9094 63.5 29.9776 64.4432H27.0288C26.9094 63.8125 26.6254 63.2869 26.1765 62.8665C25.7333 62.4403 25.1396 62.2273 24.3952 62.2273C23.7646 62.2273 23.2106 62.3977 22.7333 62.7386C22.256 63.0739 21.8839 63.5568 21.6168 64.1875C21.3555 64.8182 21.2248 65.5739 21.2248 66.4545C21.2248 67.3466 21.3555 68.1136 21.6168 68.7557C21.8782 69.392 22.2447 69.8835 22.7163 70.2301C23.1935 70.571 23.7532 70.7415 24.3952 70.7415C24.8498 70.7415 25.256 70.6562 25.614 70.4858C25.9776 70.3097 26.2816 70.0568 26.5259 69.7273C26.7702 69.3977 26.9379 68.9972 27.0288 68.5256H29.9776C29.9038 69.4517 29.631 70.2727 29.1594 70.9886C28.6879 71.6989 28.0458 72.2557 27.2333 72.6591C26.4208 73.0568 25.4663 73.2557 24.3697 73.2557Z" fill="#EBEFF7"/>
<rect opacity="0.25" x="46" y="46" width="36" height="36" rx="6" fill="black"/>
<path d="M65.5415 55.5455V73H62.4563V55.5455H65.5415Z" fill="#EBEFF7"/>
<rect opacity="0.25" x="86" y="46" width="36" height="36" rx="6" fill="black"/>
<path d="M101.358 65.3295V73H98.2727V59.9091H101.222V62.1335H101.375C101.676 61.4006 102.156 60.8182 102.815 60.3864C103.48 59.9545 104.301 59.7386 105.278 59.7386C106.182 59.7386 106.969 59.9318 107.639 60.3182C108.315 60.7045 108.838 61.2642 109.207 61.9972C109.582 62.7301 109.767 63.6193 109.761 64.6648V73H106.676V65.142C106.676 64.267 106.449 63.5824 105.994 63.0881C105.545 62.5937 104.923 62.3466 104.128 62.3466C103.588 62.3466 103.108 62.4659 102.688 62.7045C102.273 62.9375 101.946 63.2756 101.707 63.7188C101.474 64.1619 101.358 64.6989 101.358 65.3295Z" fill="#EBEFF7"/>
<rect opacity="0.25" x="6" y="86" width="36" height="36" rx="6" fill="black"/>
<path d="M22.4563 113V99.9091H25.5415V113H22.4563ZM24.0075 98.0511C23.5188 98.0511 23.0984 97.8892 22.7461 97.5653C22.3938 97.2358 22.2177 96.8409 22.2177 96.3807C22.2177 95.9148 22.3938 95.5199 22.7461 95.196C23.0984 94.8665 23.5188 94.7017 24.0075 94.7017C24.5018 94.7017 24.9222 94.8665 25.2688 95.196C25.6211 95.5199 25.7972 95.9148 25.7972 96.3807C25.7972 96.8409 25.6211 97.2358 25.2688 97.5653C24.9222 97.8892 24.5018 98.0511 24.0075 98.0511Z" fill="#EBEFF7"/>
<rect opacity="0.25" x="86" y="86" width="36" height="36" rx="6" fill="black"/>
<path d="M109.672 111.836H102.969C102.536 111.836 102.161 111.797 101.844 111.719C101.526 111.641 101.232 111.51 100.961 111.328C100.695 111.146 100.427 110.901 100.156 110.594L96.0469 106.062C95.7135 105.682 95.4844 105.367 95.3594 105.117C95.2344 104.867 95.1719 104.615 95.1719 104.359C95.1719 104.193 95.1979 104.029 95.25 103.867C95.3021 103.706 95.3906 103.529 95.5156 103.336C95.6406 103.143 95.8177 102.922 96.0469 102.672L100.148 98.1172C100.419 97.8099 100.688 97.5677 100.953 97.3906C101.224 97.2135 101.518 97.0885 101.836 97.0156C102.159 96.9375 102.536 96.8984 102.969 96.8984H109.672C110.562 96.8984 111.245 97.1354 111.719 97.6094C112.193 98.0781 112.43 98.7552 112.43 99.6406V109.266C112.43 110.151 112.193 110.799 111.719 111.211C111.245 111.628 110.562 111.836 109.672 111.836ZM102.805 107.719C103.076 107.719 103.299 107.63 103.477 107.453L105.273 105.656L107.078 107.453C107.25 107.63 107.469 107.719 107.734 107.719C107.99 107.719 108.203 107.633 108.375 107.461C108.547 107.284 108.633 107.07 108.633 106.82C108.633 106.57 108.542 106.362 108.359 106.195L106.547 104.375L108.367 102.555C108.544 102.378 108.633 102.169 108.633 101.93C108.633 101.68 108.547 101.469 108.375 101.297C108.203 101.125 107.992 101.039 107.742 101.039C107.482 101.039 107.266 101.125 107.094 101.297L105.273 103.109L103.461 101.305C103.284 101.133 103.065 101.047 102.805 101.047C102.555 101.047 102.344 101.133 102.172 101.305C102 101.471 101.914 101.682 101.914 101.938C101.914 102.177 102.003 102.385 102.18 102.562L104 104.375L102.18 106.203C102.003 106.375 101.914 106.581 101.914 106.82C101.914 107.07 102 107.284 102.172 107.461C102.344 107.633 102.555 107.719 102.805 107.719Z" fill="#8590A6"/>
</g>
</g>
<defs>
<clipPath id="clip0_1586_15">
<rect width="128" height="128" fill="white"/>
</clipPath>
<clipPath id="clip1_1586_15">
<rect x="6" y="6" width="116" height="116" rx="18" fill="white"/>
</clipPath>
</defs>
</svg>
