<svg width="128" height="128" viewBox="0 0 128 128" fill="none" xmlns="http://www.w3.org/2000/svg">
<g clip-path="url(#clip0_1586_15)">
<rect width="128" height="128" rx="24" fill="#1E212B"/>
<g clip-path="url(#clip1_1586_15)">
<path d="M29.5415 19.5455V37H26.4563V19.5455H29.5415Z" fill="#14CCAD"/>
<path d="M64.2674 37.2557C62.9549 37.2557 61.8214 36.983 60.8668 36.4375C59.918 35.8864 59.1879 35.108 58.6765 34.1023C58.1651 33.0909 57.9094 31.9006 57.9094 30.5312C57.9094 29.1847 58.1651 28.0028 58.6765 26.9858C59.1935 25.9631 59.9151 25.1676 60.8413 24.5994C61.7674 24.0256 62.8555 23.7386 64.1055 23.7386C64.9123 23.7386 65.6737 23.8693 66.3896 24.1307C67.1112 24.3864 67.7475 24.7841 68.2987 25.3239C68.8555 25.8636 69.293 26.5511 69.6112 27.3864C69.9293 28.2159 70.0884 29.2045 70.0884 30.3523V31.2983H59.3583V29.2188H67.131C67.1254 28.6278 66.9975 28.1023 66.7475 27.642C66.4975 27.1761 66.1481 26.8097 65.6992 26.5426C65.256 26.2756 64.739 26.142 64.1481 26.142C63.5174 26.142 62.9634 26.2955 62.4862 26.6023C62.0089 26.9034 61.6367 27.3011 61.3697 27.7955C61.1083 28.2841 60.9748 28.821 60.9691 29.4062V31.2216C60.9691 31.983 61.1083 32.6364 61.3867 33.1818C61.6651 33.7216 62.0543 34.1364 62.5543 34.4261C63.0543 34.7102 63.6396 34.8523 64.31 34.8523C64.7589 34.8523 65.1651 34.7898 65.5288 34.6648C65.8924 34.5341 66.2077 34.3438 66.4748 34.0938C66.7418 33.8438 66.9435 33.5341 67.0799 33.1648L69.9606 33.4886C69.7788 34.25 69.4322 34.9148 68.9208 35.483C68.4151 36.0455 67.7674 36.483 66.9776 36.7955C66.1879 37.1023 65.2844 37.2557 64.2674 37.2557Z" fill="#14CCAD"/>
<path d="M97.358 23.9091L100 28.7415L102.685 23.9091H105.949L102.003 30.4545L106.017 37H102.77L100 32.2869L97.2557 37H93.983L97.9716 30.4545L94.0852 23.9091H97.358Z" fill="#14CCAD"/>
<rect opacity="0.5" x="12" y="48" width="32" height="32" rx="4" fill="black"/>
<path d="M25.7983 64.608V71H23.2273V60.0909H25.6847V61.9446H25.8125C26.0634 61.3338 26.4635 60.8485 27.0128 60.4886C27.5668 60.1288 28.2509 59.9489 29.0653 59.9489C29.8182 59.9489 30.474 60.1098 31.0327 60.4318C31.5961 60.7538 32.0317 61.2202 32.3395 61.831C32.652 62.4418 32.8059 63.1828 32.8011 64.054V71H30.2301V64.4517C30.2301 63.7225 30.0407 63.152 29.6619 62.7401C29.2879 62.3281 28.7694 62.1222 28.1065 62.1222C27.6567 62.1222 27.2566 62.2216 26.9062 62.4205C26.5606 62.6146 26.2884 62.8963 26.0895 63.2656C25.8954 63.6349 25.7983 64.0824 25.7983 64.608Z" fill="#EBEFF7"/>
<rect opacity="0.5" x="48" y="48" width="32" height="32" rx="4" fill="black"/>
<path d="M62.7136 71V60.0909H65.2846V71H62.7136ZM64.0062 58.5426C63.599 58.5426 63.2486 58.4077 62.9551 58.1378C62.6615 57.8632 62.5147 57.5341 62.5147 57.1506C62.5147 56.7623 62.6615 56.4332 62.9551 56.1634C63.2486 55.8887 63.599 55.7514 64.0062 55.7514C64.4181 55.7514 64.7685 55.8887 65.0574 56.1634C65.3509 56.4332 65.4977 56.7623 65.4977 57.1506C65.4977 57.5341 65.3509 57.8632 65.0574 58.1378C64.7685 58.4077 64.4181 58.5426 64.0062 58.5426Z" fill="#EBEFF7"/>
<rect opacity="0.5" x="84" y="48" width="32" height="32" rx="4" fill="black"/>
<path d="M99.9956 71.2131C98.9302 71.2131 98.0069 70.9787 97.2257 70.5099C96.4444 70.0412 95.8384 69.3854 95.4075 68.5426C94.9814 67.6998 94.7683 66.715 94.7683 65.5881C94.7683 64.4612 94.9814 63.474 95.4075 62.6264C95.8384 61.7789 96.4444 61.1207 97.2257 60.652C98.0069 60.1832 98.9302 59.9489 99.9956 59.9489C101.061 59.9489 101.984 60.1832 102.765 60.652C103.547 61.1207 104.15 61.7789 104.577 62.6264C105.007 63.474 105.223 64.4612 105.223 65.5881C105.223 66.715 105.007 67.6998 104.577 68.5426C104.15 69.3854 103.547 70.0412 102.765 70.5099C101.984 70.9787 101.061 71.2131 99.9956 71.2131ZM100.01 69.1534C100.587 69.1534 101.07 68.9948 101.459 68.6776C101.847 68.3556 102.136 67.9247 102.325 67.3849C102.519 66.8452 102.616 66.2438 102.616 65.581C102.616 64.9134 102.519 64.3097 102.325 63.7699C102.136 63.2254 101.847 62.7921 101.459 62.4702C101.07 62.1482 100.587 61.9872 100.01 61.9872C99.4179 61.9872 98.9255 62.1482 98.5325 62.4702C98.1442 62.7921 97.853 63.2254 97.6589 63.7699C97.4695 64.3097 97.3748 64.9134 97.3748 65.581C97.3748 66.2438 97.4695 66.8452 97.6589 67.3849C97.853 67.9247 98.1442 68.3556 98.5325 68.6776C98.9255 68.9948 99.4179 69.1534 100.01 69.1534Z" fill="#EBEFF7"/>
<rect opacity="0.5" x="12" y="84" width="32" height="32" rx="4" fill="black"/>
<path d="M28.3081 107.213C27.219 107.213 26.2839 106.974 25.5027 106.496C24.7261 106.018 24.1272 105.357 23.7058 104.514C23.2891 103.667 23.0808 102.691 23.0808 101.588C23.0808 100.48 23.2939 99.5024 23.72 98.6548C24.1461 97.8026 24.7475 97.1397 25.524 96.6662C26.3052 96.188 27.2285 95.9489 28.2939 95.9489C29.1793 95.9489 29.9629 96.1122 30.6447 96.4389C31.3313 96.7609 31.8781 97.2178 32.2853 97.8097C32.6925 98.3968 32.9245 99.0833 32.9814 99.8693H30.524C30.4245 99.3437 30.1878 98.9058 29.8137 98.5554C29.4444 98.2003 28.9496 98.0227 28.3294 98.0227C27.8038 98.0227 27.3422 98.1648 26.9444 98.4489C26.5467 98.7282 26.2366 99.1307 26.014 99.6562C25.7962 100.182 25.6873 100.812 25.6873 101.545C25.6873 102.289 25.7962 102.928 26.014 103.463C26.2318 103.993 26.5372 104.403 26.9302 104.692C27.3279 104.976 27.7943 105.118 28.3294 105.118C28.7082 105.118 29.0467 105.047 29.345 104.905C29.648 104.758 29.9013 104.547 30.1049 104.273C30.3085 103.998 30.4482 103.664 30.524 103.271H32.9814C32.9198 104.043 32.6925 104.727 32.2995 105.324C31.9065 105.916 31.3715 106.38 30.6944 106.716C30.0173 107.047 29.2219 107.213 28.3081 107.213Z" fill="#EBEFF7"/>
<rect opacity="0.5" x="84" y="84" width="32" height="32" rx="4" fill="black"/>
<path d="M105.672 107.836H98.9688C98.5365 107.836 98.1615 107.797 97.8438 107.719C97.526 107.641 97.2318 107.51 96.9609 107.328C96.6953 107.146 96.4271 106.901 96.1562 106.594L92.0469 102.062C91.7135 101.682 91.4844 101.367 91.3594 101.117C91.2344 100.867 91.1719 100.615 91.1719 100.359C91.1719 100.193 91.1979 100.029 91.25 99.8672C91.3021 99.7057 91.3906 99.5286 91.5156 99.3359C91.6406 99.1432 91.8177 98.9219 92.0469 98.6719L96.1484 94.1172C96.4193 93.8099 96.6875 93.5677 96.9531 93.3906C97.224 93.2135 97.5182 93.0885 97.8359 93.0156C98.1589 92.9375 98.5365 92.8984 98.9688 92.8984H105.672C106.562 92.8984 107.245 93.1354 107.719 93.6094C108.193 94.0781 108.43 94.7552 108.43 95.6406V105.266C108.43 106.151 108.193 106.799 107.719 107.211C107.245 107.628 106.562 107.836 105.672 107.836ZM98.8047 103.719C99.0755 103.719 99.2995 103.63 99.4766 103.453L101.273 101.656L103.078 103.453C103.25 103.63 103.469 103.719 103.734 103.719C103.99 103.719 104.203 103.633 104.375 103.461C104.547 103.284 104.633 103.07 104.633 102.82C104.633 102.57 104.542 102.362 104.359 102.195L102.547 100.375L104.367 98.5547C104.544 98.3776 104.633 98.1693 104.633 97.9297C104.633 97.6797 104.547 97.4688 104.375 97.2969C104.203 97.125 103.992 97.0391 103.742 97.0391C103.482 97.0391 103.266 97.125 103.094 97.2969L101.273 99.1094L99.4609 97.3047C99.2839 97.1328 99.0651 97.0469 98.8047 97.0469C98.5547 97.0469 98.3438 97.1328 98.1719 97.3047C98 97.4714 97.9141 97.6823 97.9141 97.9375C97.9141 98.1771 98.0026 98.3854 98.1797 98.5625L100 100.375L98.1797 102.203C98.0026 102.375 97.9141 102.581 97.9141 102.82C97.9141 103.07 98 103.284 98.1719 103.461C98.3438 103.633 98.5547 103.719 98.8047 103.719Z" fill="#8590A6"/>
</g>
</g>
<defs>
<clipPath id="clip0_1586_15">
<rect width="128" height="128" fill="white"/>
</clipPath>
<clipPath id="clip1_1586_15">
<rect x="12" y="12" width="104" height="104" rx="12" fill="white"/>
</clipPath>
</defs>
</svg>
