<svg width="128" height="128" viewBox="0 0 128 128" fill="none" xmlns="http://www.w3.org/2000/svg">
<g clip-path="url(#clip0_1586_15)">
<rect width="128" height="128" rx="24" fill="#4C5567"/>
<g clip-path="url(#clip1_1586_15)">
<path d="M25.81 15.5455V33H22.1793V15.5455H25.81Z" fill="#14CCAD"/>
<rect opacity="0.1" x="46" y="6" width="36" height="36" rx="6" fill="white"/>
<path d="M63.9947 33.2557C62.7163 33.2557 61.6083 32.9744 60.6708 32.4119C59.7333 31.8494 59.006 31.0625 58.489 30.0511C57.9776 29.0398 57.7219 27.858 57.7219 26.5057C57.7219 25.1534 57.9776 23.9687 58.489 22.9517C59.006 21.9347 59.7333 21.1449 60.6708 20.5824C61.6083 20.0199 62.7163 19.7386 63.9947 19.7386C65.2731 19.7386 66.381 20.0199 67.3185 20.5824C68.256 21.1449 68.9805 21.9347 69.4918 22.9517C70.0089 23.9687 70.2674 25.1534 70.2674 26.5057C70.2674 27.858 70.0089 29.0398 69.4918 30.0511C68.9805 31.0625 68.256 31.8494 67.3185 32.4119C66.381 32.9744 65.2731 33.2557 63.9947 33.2557ZM64.0117 30.7841C64.7049 30.7841 65.2844 30.5937 65.7504 30.2131C66.2163 29.8267 66.5629 29.3097 66.7901 28.6619C67.0231 28.0142 67.1396 27.2926 67.1396 26.4972C67.1396 25.696 67.0231 24.9716 66.7901 24.3239C66.5629 23.6705 66.2163 23.1506 65.7504 22.7642C65.2844 22.3778 64.7049 22.1847 64.0117 22.1847C63.3015 22.1847 62.7106 22.3778 62.239 22.7642C61.7731 23.1506 61.4237 23.6705 61.1907 24.3239C60.9634 24.9716 60.8498 25.696 60.8498 26.4972C60.8498 27.2926 60.9634 28.0142 61.1907 28.6619C61.4237 29.3097 61.7731 29.8267 62.239 30.2131C62.7106 30.5937 63.3015 30.7841 64.0117 30.7841Z" fill="white"/>
<path d="M101.592 19.9091L103.996 24.4858L106.459 19.9091H110.183L106.391 26.4545L110.286 33H106.578L103.996 28.4744L101.456 33H97.706L101.592 26.4545L97.8423 19.9091H101.592Z" fill="#14CCAD"/>
<rect opacity="0.1" x="6" y="46" width="36" height="36" rx="6" fill="white"/>
<path d="M24.3697 73.2557C23.0629 73.2557 21.9407 72.9688 21.0032 72.3949C20.0714 71.821 19.3526 71.0284 18.8469 70.017C18.3469 69 18.0969 67.8295 18.0969 66.5057C18.0969 65.1761 18.3526 64.0028 18.864 62.9858C19.3754 61.9631 20.0969 61.1676 21.0288 60.5994C21.9663 60.0256 23.0742 59.7386 24.3526 59.7386C25.4151 59.7386 26.3555 59.9347 27.1737 60.3267C27.9975 60.7131 28.6538 61.2614 29.1424 61.9716C29.631 62.6761 29.9094 63.5 29.9776 64.4432H27.0288C26.9094 63.8125 26.6254 63.2869 26.1765 62.8665C25.7333 62.4403 25.1396 62.2273 24.3952 62.2273C23.7646 62.2273 23.2106 62.3977 22.7333 62.7386C22.256 63.0739 21.8839 63.5568 21.6168 64.1875C21.3555 64.8182 21.2248 65.5739 21.2248 66.4545C21.2248 67.3466 21.3555 68.1136 21.6168 68.7557C21.8782 69.392 22.2447 69.8835 22.7163 70.2301C23.1935 70.571 23.7532 70.7415 24.3952 70.7415C24.8498 70.7415 25.256 70.6562 25.614 70.4858C25.9776 70.3097 26.2816 70.0568 26.5259 69.7273C26.7702 69.3977 26.9379 68.9972 27.0288 68.5256H29.9776C29.9038 69.4517 29.631 70.2727 29.1594 70.9886C28.6879 71.6989 28.0458 72.2557 27.2333 72.6591C26.4208 73.0568 25.4663 73.2557 24.3697 73.2557Z" fill="white"/>
<path d="M64.2429 73.2557C62.8963 73.2557 61.7372 72.983 60.7656 72.4375C59.7997 71.8864 59.0554 71.108 58.5327 70.1023C58.0099 69.0909 57.7486 67.8949 57.7486 66.5142C57.7486 65.1676 58.0099 63.9858 58.5327 62.9688C59.0554 61.9517 59.7912 61.1591 60.7401 60.5909C61.6946 60.0227 62.8139 59.7386 64.098 59.7386C64.9616 59.7386 65.7656 59.8778 66.5099 60.1562C67.2599 60.429 67.9134 60.8409 68.4702 61.392C69.0327 61.9432 69.4702 62.6364 69.7827 63.4716C70.0952 64.3011 70.2514 65.2727 70.2514 66.3864V67.3835H59.1974V65.1335H66.8338C66.8338 64.6108 66.7202 64.1477 66.4929 63.7443C66.2656 63.3409 65.9503 63.0256 65.5469 62.7983C65.1491 62.5653 64.6861 62.4489 64.1577 62.4489C63.6065 62.4489 63.1179 62.5767 62.6918 62.8324C62.2713 63.0824 61.9418 63.4205 61.7031 63.8466C61.4645 64.267 61.3423 64.7358 61.3366 65.2528V67.392C61.3366 68.0398 61.456 68.5994 61.6946 69.071C61.9389 69.5426 62.2827 69.9062 62.7259 70.1619C63.169 70.4176 63.6946 70.5455 64.3026 70.5455C64.706 70.5455 65.0753 70.4886 65.4105 70.375C65.7457 70.2614 66.0327 70.0909 66.2713 69.8636C66.5099 69.6364 66.6918 69.358 66.8168 69.0284L70.1747 69.25C70.0043 70.0568 69.6548 70.7614 69.1264 71.3636C68.6037 71.9602 67.9276 72.4261 67.098 72.7614C66.2741 73.0909 65.3224 73.2557 64.2429 73.2557Z" fill="#14CCAD"/>
<rect opacity="0.1" x="86" y="46" width="36" height="36" rx="6" fill="white"/>
<path d="M101.358 65.3295V73H98.2727V59.9091H101.222V62.1335H101.375C101.676 61.4006 102.156 60.8182 102.815 60.3864C103.48 59.9545 104.301 59.7386 105.278 59.7386C106.182 59.7386 106.969 59.9318 107.639 60.3182C108.315 60.7045 108.838 61.2642 109.207 61.9972C109.582 62.7301 109.767 63.6193 109.761 64.6648V73H106.676V65.142C106.676 64.267 106.449 63.5824 105.994 63.0881C105.545 62.5937 104.923 62.3466 104.128 62.3466C103.588 62.3466 103.108 62.4659 102.688 62.7045C102.273 62.9375 101.946 63.2756 101.707 63.7188C101.474 64.1619 101.358 64.6989 101.358 65.3295Z" fill="white"/>
<rect opacity="0.1" x="6" y="86" width="36" height="36" rx="6" fill="white"/>
<path d="M22.4563 113V99.9091H25.5415V113H22.4563ZM24.0075 98.0511C23.5188 98.0511 23.0984 97.8892 22.7461 97.5653C22.3938 97.2358 22.2177 96.8409 22.2177 96.3807C22.2177 95.9148 22.3938 95.5199 22.7461 95.196C23.0984 94.8665 23.5188 94.7017 24.0075 94.7017C24.5018 94.7017 24.9222 94.8665 25.2688 95.196C25.6211 95.5199 25.7972 95.9148 25.7972 96.3807C25.7972 96.8409 25.6211 97.2358 25.2688 97.5653C24.9222 97.8892 24.5018 98.0511 24.0075 98.0511Z" fill="white"/>
<rect opacity="0.1" x="86" y="86" width="36" height="36" rx="6" fill="white"/>
<path d="M111.09 113.295H102.711C102.171 113.295 101.702 113.246 101.305 113.148C100.908 113.051 100.54 112.888 100.201 112.66C99.8691 112.432 99.5339 112.126 99.1953 111.742L94.0586 106.078C93.6419 105.603 93.3555 105.209 93.1992 104.896C93.043 104.584 92.9648 104.268 92.9648 103.949C92.9648 103.741 92.9974 103.536 93.0625 103.334C93.1276 103.132 93.2383 102.911 93.3945 102.67C93.5508 102.429 93.7721 102.152 94.0586 101.84L99.1855 96.1465C99.5241 95.7624 99.8594 95.4596 100.191 95.2383C100.53 95.0169 100.898 94.8607 101.295 94.7695C101.699 94.6719 102.171 94.623 102.711 94.623H111.09C112.203 94.623 113.056 94.9193 113.648 95.5117C114.241 96.0977 114.537 96.944 114.537 98.0508V110.082C114.537 111.189 114.241 111.999 113.648 112.514C113.056 113.035 112.203 113.295 111.09 113.295ZM102.506 108.148C102.844 108.148 103.124 108.038 103.346 107.816L105.592 105.57L107.848 107.816C108.062 108.038 108.336 108.148 108.668 108.148C108.987 108.148 109.254 108.041 109.469 107.826C109.684 107.605 109.791 107.338 109.791 107.025C109.791 106.713 109.677 106.452 109.449 106.244L107.184 103.969L109.459 101.693C109.68 101.472 109.791 101.212 109.791 100.912C109.791 100.6 109.684 100.336 109.469 100.121C109.254 99.9062 108.99 99.7988 108.678 99.7988C108.352 99.7988 108.082 99.9062 107.867 100.121L105.592 102.387L103.326 100.131C103.105 99.916 102.831 99.8086 102.506 99.8086C102.193 99.8086 101.93 99.916 101.715 100.131C101.5 100.339 101.393 100.603 101.393 100.922C101.393 101.221 101.503 101.482 101.725 101.703L104 103.969L101.725 106.254C101.503 106.469 101.393 106.726 101.393 107.025C101.393 107.338 101.5 107.605 101.715 107.826C101.93 108.041 102.193 108.148 102.506 108.148Z" fill="white"/>
</g>
</g>
<defs>
<clipPath id="clip0_1586_15">
<rect width="128" height="128" fill="white"/>
</clipPath>
<clipPath id="clip1_1586_15">
<rect x="6" y="6" width="116" height="116" rx="18" fill="white"/>
</clipPath>
</defs>
</svg>
